<mxfile host="app.diagrams.net" modified="2024-02-02T03:02:28.024Z" agent="Mozilla/5.0 (X11; CrOS x86_64 14541.0.0) AppleWebKit/537.36 (KHTML, like Gecko) Chrome/120.0.0.0 Safari/537.36" version="23.1.1" etag="DYYU5tIfdaC0raQDXmBL" type="github">
  <diagram name="Page-1" id="3IB2yUQrLHAZ9xx6fitM">
    <mxGraphModel>
      <root>
        <mxCell id="0" />
        <mxCell id="1" parent="0" />
      </root>
    </mxGraphModel>
  </diagram>
</mxfile>
